<svg version="1.1" id="Layer_1" xmlns="http://www.w3.org/2000/svg" xmlns:xlink="http://www.w3.org/1999/xlink" x="0px" y="0px"
					 viewBox="2.5 13 118 9" style="enable-background:new 2.5 13 118 9;" xml:space="preserve">
	<path fill="#fff" class="svg" d="M23.5,13.1l-2.9,5.1l0,0h-2.3L18,18.9h2.1h0l-1.8,3h1.1l1.8-3l0,0h2.6l0.6,3h2.1l-1.6-8.9H23.5z M21.7,18.2
	L21.7,18.2l1.5-2.7l0.5,2.7H21.7z M53.4,17.2L53.4,17.2l-1.3,0L51.9,18h1.3l0,0l-1.3,4h5.8l0.2-0.8h-3.6l1-3.2h2.3l0.2-0.7h-2.3h0
	l1.1-3.3h3.6l0.2-0.8h-5.8L53.4,17.2z M68.4,13.1h-2.1L63.5,22h5.1l0.3-0.8h-3L68.4,13.1z M92,13.1h-2.1L87,22h5.1l0.3-0.8h-3
	L92,13.1z M102.2,13.1l-2.9,5.1l0,0h-2.3l-0.3,0.7h2.1h0l-1.8,3h1.1l1.8-3l0,0h2.6l0.6,3h2.1l-1.6-8.9H102.2z M100.4,18.2
	L100.4,18.2l1.5-2.7l0.5,2.7H100.4z M11.7,17.3H8.4l1.3-4.2H7.6l-1.3,4.2H4.1l-0.2,0.8H6L4.8,22h2.1l1.2-3.9h3.3L10.2,22h2.1
	l2.8-8.9H13L11.7,17.3z M36.9,14.4l0.4-0.7c-4.2-2.3-7.2,2.1-4.2,4.1c0.5,0.3,1.2,0.6,1.9,1.1c1.8,1.2-0.9,3.8-3.6,1.4L30.9,21
	c2.1,1.8,5.6,1.2,6.2-1.6c0.2-1,0-1.8-0.8-2.3c-0.8-0.6-1.3-0.7-1.9-1C32.2,15.1,34.3,12.7,36.9,14.4z M47.1,14.4l0.4-0.7
	c-4.2-2.3-7.2,2.1-4.2,4.1c0.5,0.3,1.2,0.6,1.9,1.1c1.8,1.2-0.9,3.8-3.6,1.4L41,21c2.1,1.8,5.6,1.2,6.2-1.6c0.2-1,0-1.8-0.8-2.3
	c-0.8-0.6-1.3-0.7-1.9-1C42.4,15.1,44.5,12.7,47.1,14.4z M79.5,13.1c-2.6,0-2.9,0-2.9,0l-1.4,4.1l-0.8,0h-0.5L73.6,18H75l0,0
	l-1.1,3.2L73.7,22h4c4.1-0.1,5.5-3.8,2.4-4.5C83.5,16.4,83.1,13.1,79.5,13.1z M77.6,21.2h-0.7l-0.8,0l1-3.2h1.3
	C80.9,18,79.2,21.1,77.6,21.2z M78.6,17.2h-1.1l1-3.3H79C81.3,13.8,80.8,17.1,78.6,17.2z M115.4,13.1h-2.6l-2.9,8.9h3.4
	C120.2,21.7,121.5,13,115.4,13.1z M113.2,21.1h-1l2.5-7.2h0.7C118.7,13.9,117.1,21.1,113.2,21.1z"/>
</svg>